# xmcd
#
# Track frame offsets:
#	150
#	13742
#	25969
#	39063
#	56293
#	67502
#	88249
#	102772
#	114989
#	129919
#
# Disc length: 1943 seconds
#
# Revision: 1
# Processed by: cddbd v1.5.2PL0 Copyright (c) Steve Scherf et al.
# Submitted via: audiograbber 1.83.01
#
DISCID=6a07950a
DTITLE=Dana Kyle Stokes - Who's Fallen Angel
DYEAR=1996
DGENRE=Country
TTITLE0=Milk Cow Boogie
TTITLE1=Door Scings Both Ways
TTITLE2=Cowboy Singer
TTITLE3=Two Part Harmony
TTITLE4=Good Man Is Hard To Find
TTITLE5=Help Me Make It Through The Night
TTITLE6=Who's Fallen Angel
TTITLE7=Are You Sure Hank Done It This Way
TTITLE8=Hope To God I've Gone Crazy
TTITLE9=Hope To God I've Gone Crazy
EXTD=
EXTT0=
EXTT1=
EXTT2=
EXTT3=
EXTT4=
EXTT5=
EXTT6=
EXTT7=
EXTT8=
EXTT9=
PLAYORDER=
